#!OML:ASF F:\VICON\USERDATA\INSTALL\rory3\rory3.ASF
:FULLY-SPECIFIED
:DEGREES
239
root 9.21324 18.1653 5.26791 -179.591 13.3458 182.31
lowerback 14.0203 6.00155 5.02969
upperback 3.86194 9.0953 0.132112
thorax -2.95272 4.69222 -4.08651
lowerneck -15.322 15.6697 -4.16558
upperneck 44.9754 18.9878 6.02923
head 18.2097 6.3374 6.51436
rclavicle -9.93923e-017 -1.94809e-014
rhumerus -18.5181 -2.4935 -79.8657
rradius 45.1271
rwrist 2.24291
rhand -16.3432 10.4158
rfingers 7.12502
rthumb 9.86902 -19.3329
lclavicle -9.93923e-017 -1.94809e-014
lhumerus -37.4459 11.1055 82.4158
lradius 27.564
lwrist -5.85928
lhand -14.7963 28.9038
lfingers 7.12502
lthumb 11.3612 58.576
rfemur 1.37594 -9.14434 23.8997
rtibia 27.7636
rfoot -10.1491 -11.3475
rtoes -12.6806
lfemur -23.6187 -9.77857 -17.956
ltibia 28.8538
lfoot 0.236591 -7.00338
ltoes -9.69414
240
root 9.17642 18.1747 5.36012 -179.754 13.6005 182.268
lowerback 14.0148 5.90023 4.99505
upperback 3.90853 8.95935 0.157586
thorax -2.92381 4.62837 -4.01944
lowerneck -15.3308 15.689 -4.23606
upperneck 45.086 18.9297 6.19582
head 18.239 6.30481 6.5935
rclavicle 2.23633e-014 3.97569e-015
rhumerus -18.8929 -2.64932 -80.0487
rradius 45.2288
rwrist 2.33395
rhand -15.9237 10.3174
rfingers 7.12502
rthumb 10.2737 -19.4117
lclavicle 2.23633e-014 3.97569e-015
lhumerus -37.1391 10.7061 82.631
lradius 27.59
lwrist -6.24403
lhand -15.0329 27.4488
lfingers 7.12502
lthumb 11.133 57.1335
rfemur 1.01424 -9.12475 23.7871
rtibia 28.104
rfoot -10.3382 -11.2177
rtoes -12.8785
lfemur -23.6555 -10.2181 -17.7608
ltibia 30.5713
lfoot -0.216713 -6.75764
ltoes -8.81895
241
root 9.13687 18.1875 5.45164 -179.883 13.8434 182.193
lowerback 13.9731 5.82329 4.95578
upperback 3.93614 8.84982 0.171529
thorax -2.89128 4.57605 -3.96191
lowerneck -15.3647 15.6665 -4.3655
upperneck 45.2961 18.7473 6.5061
head 18.3097 6.21847 6.73639
rclavicle 1.00883e-013 1.63003e-014
rhumerus -19.1888 -2.85638 -80.2315
rradius 45.1383
rwrist 2.42565
rhand -16.5169 10.4459
rfingers 7.12502
rthumb 9.7015 -19.3107
lclavicle 1.00883e-013 1.63003e-014
lhumerus -36.8444 9.98304 82.9718
lradius 27.6663
lwrist -6.26372
lhand -15.375 26.1786
lfingers 7.12502
lthumb 10.8031 55.8808
rfemur 0.642492 -9.21191 23.5995
rtibia 28.3577
rfoot -10.4603 -10.9435
rtoes -12.535
lfemur -23.7269 -10.5299 -17.6452
ltibia 32.3653
lfoot -0.850626 -6.80017
ltoes -9.43654
242
root 9.09659 18.1951 5.54723 -180.058 14.1627 182.005
lowerback 13.9783 5.76553 4.77603
upperback 3.97659 8.7495 0.182062
thorax -2.88981 4.52787 -3.83901
lowerneck -15.4008 15.6658 -4.44561
upperneck 45.5025 18.6493 6.66519
head 18.4106 6.1462 6.82235
rclavicle 2.64384e-014 -1.63003e-014
rhumerus -19.4928 -3.13693 -80.3765
rradius 44.9703
rwrist 2.56787
rhand -17.0144 10.4871
rfingers 7.12502
rthumb 9.22146 -19.2913
lclavicle 2.64384e-014 -1.63003e-014
lhumerus -36.5798 9.37638 83.3148
lradius 27.8357
lwrist -6.09849
lhand -15.4621 25.9186
lfingers 7.12502
lthumb 10.7191 55.6251
rfemur 0.30495 -9.04678 23.3719
rtibia 28.5424
rfoot -10.2712 -10.9914
rtoes -12.9606
lfemur -23.7471 -10.7328 -17.6472
ltibia 34.142
lfoot -1.47825 -6.96863
ltoes -10.4854
243
root 9.0578 18.2034 5.63552 -180.247 14.4949 181.965
lowerback 14.0287 5.68472 4.74923
upperback 3.99866 8.64336 0.206667
thorax -2.91152 4.47547 -3.79
lowerneck -15.373 15.667 -4.53049
upperneck 45.5782 18.5845 6.77331
head 18.4205 6.10097 6.86933
rclavicle 8.02096e-014 -2.54444e-014
rhumerus -20.0383 -3.40119 -80.5267
rradius 45.0226
rwrist 2.69217
rhand -17.1032 10.4816
rfingers 7.12502
rthumb 9.13579 -19.3005
lclavicle 8.02096e-014 -2.54444e-014
lhumerus -36.3186 9.03295 83.4632
lradius 27.8076
lwrist -6.24626
lhand -15.6721 25.8794
lfingers 7.12502
lthumb 10.5165 55.5963
rfemur 0.0781309 -8.79753 23.2981
rtibia 28.7034
rfoot -10.051 -11.016
rtoes -13.3493
lfemur -23.6539 -10.9618 -17.4689
ltibia 35.8587
lfoot -1.74085 -7.04412
ltoes -9.92841
244
root 9.0136 18.215 5.7165 -180.415 14.9263 182.087
lowerback 14.099 5.62396 4.89551
upperback 3.98457 8.58907 0.278523
thorax -2.95922 4.44558 -3.79751
lowerneck -15.1502 15.6726 -4.59311
upperneck 45.5571 18.5163 6.81974
head 18.3352 6.06408 6.85021
rclavicle 6.2816e-014 -2.62396e-014
rhumerus -20.7671 -3.49286 -80.6581
rradius 45.1936
rwrist 2.65165
rhand -17.1837 10.0555
rfingers 7.12502
rthumb 9.05807 -19.73
lclavicle 6.2816e-014 -2.62396e-014
lhumerus -36.0344 8.8022 83.5548
lradius 27.6385
lwrist -6.36819
lhand -15.7055 25.9639
lfingers 7.12502
lthumb 10.4842 55.6824
rfemur -0.0810815 -8.63739 23.3059
rtibia 28.7742
rfoot -9.8731 -10.7363
rtoes -13.1405
lfemur -23.5047 -11.2451 -17.1268
ltibia 37.5368
lfoot -1.8652 -6.90008
ltoes -9.71831
245
root 8.96758 18.2246 5.7983 -180.537 15.4388 182.169
lowerback 14.1522 5.60952 5.00326
upperback 3.94874 8.58531 0.311832
thorax -3.01534 4.43863 -3.83021
lowerneck -14.9932 15.6891 -4.51983
upperneck 45.5982 18.4663 6.76932
head 18.3449 6.02586 6.79251
rclavicle 2.33572e-014 1.31198e-014
rhumerus -21.47 -3.77957 -80.8491
rradius 45.3471
rwrist 2.65731
rhand -17.0967 8.9783
rfingers 7.12502
rthumb 9.14199 -20.8036
lclavicle 2.33572e-014 1.31198e-014
lhumerus -35.7849 8.60762 83.5731
lradius 27.5726
lwrist -6.4501
lhand -15.8433 25.928
lfingers 7.12502
lthumb 10.3513 55.6532
rfemur -0.281379 -8.50935 23.2486
rtibia 28.7636
rfoot -9.66968 -10.2535
rtoes -13.3632
lfemur -23.3911 -11.4731 -16.8094
ltibia 39.1379
lfoot -2.29766 -7.05245
ltoes -10.2862
246
root 8.92243 18.2351 5.8777 -180.592 15.8873 182.379
lowerback 14.0925 5.54326 5.22128
upperback 3.96778 8.52714 0.366934
thorax -2.94568 4.41279 -3.87356
lowerneck -15.0222 15.7186 -4.49037
upperneck 45.653 18.4995 6.70924
head 18.3994 6.01152 6.77382
rclavicle -7.84206e-014 2.54444e-014
rhumerus -21.998 -4.07051 -81.0133
rradius 45.3276
rwrist 2.43102
rhand -16.8717 7.85844
rfingers 7.12502
rthumb 9.35912 -21.9138
lclavicle -7.84206e-014 2.54444e-014
lhumerus -35.4485 8.61213 83.5025
lradius 27.5223
lwrist -6.47944
lhand -16.1003 25.9014
lfingers 7.12502
lthumb 10.1034 55.6388
rfemur -0.495391 -8.40553 23.3473
rtibia 28.7027
rfoot -9.45152 -9.89238
rtoes -13.9402
lfemur -23.2257 -11.7617 -16.3485
ltibia 40.6825
lfoot -2.78006 -7.23516
ltoes -10.6061
247
root 8.87639 18.2528 5.95173 -180.682 16.3472 182.365
lowerback 13.9054 5.48626 5.18501
upperback 4.04594 8.43707 0.396333
thorax -2.78134 4.37711 -3.78205
lowerneck -15.1035 15.7376 -4.62366
upperneck 45.668 18.5221 6.81067
head 18.3856 6.00621 6.84427
rclavicle -7.73272e-014 1.03368e-014
rhumerus -22.457 -4.23703 -81.1128
rradius 45.1682
rwrist 2.17937
rhand -16.7438 7.64511
rfingers 7.12502
rthumb 9.48251 -22.1215
lclavicle -7.73272e-014 1.03368e-014
lhumerus -34.9934 8.93389 83.3462
lradius 27.3176
lwrist -6.82278
lhand -16.4552 25.1619
lfingers 7.12502
lthumb 9.76102 54.9157
rfemur -0.758796 -8.43925 23.1976
rtibia 28.647
rfoot -9.12438 -9.54908
rtoes -15.6963
lfemur -22.9687 -12.0926 -16.1516
ltibia 42.1638
lfoot -3.12543 -7.1524
ltoes -11.2152
248
root 8.83094 18.2723 6.02479 -180.805 16.9076 182.365
lowerback 13.84 5.46589 5.15501
upperback 4.07375 8.40139 0.427508
thorax -2.72939 4.3614 -3.71877
lowerneck -15.1509 15.745 -4.75574
upperneck 45.6844 18.504 6.93867
head 18.3626 5.98714 6.91531
rclavicle -1.6201e-014 2.38542e-015
rhumerus -23.0798 -4.40535 -81.2347
rradius 45.0528
rwrist 2.18694
rhand -16.7962 7.86994
rfingers 7.12502
rthumb 9.43197 -21.899
lclavicle -1.6201e-014 2.38542e-015
lhumerus -34.6045 8.99558 83.2965
lradius 27.0896
lwrist -6.86788
lhand -17.2068 23.78
lfingers 7.12502
lthumb 9.03575 53.5665
rfemur -0.949111 -8.3011 23.0799
rtibia 28.5882
rfoot -8.91934 -9.2304
rtoes -15.911
lfemur -22.6048 -12.3838 -15.9333
ltibia 43.5919
lfoot -3.31913 -7.18259
ltoes -11.2034
